#!OML:ASF C:\Vicon Data\Big\jianyuan-13\jianyuan\Session 1\Capture.male.ASF
:FULLY-SPECIFIED
:DEGREES
195
root -9.088060 17.404091 -11.564206 7.611105 -1.762280 4.684313
lowerback -9.868829 -0.440210 -5.671976 
upperback 3.131499 0.287509 -1.362783 
thorax 8.890185 -0.130926 1.789763 
lowerneck -3.310348 -2.801807 1.875232 
upperneck 23.882138 -3.688578 -1.744766 
head 7.817519 -1.732033 -1.170825 
rclavicle 0.000000 0.000000 
rhumerus -34.522013 -17.017053 -80.721255 
rradius 29.612329 
rwrist 31.867251 
rhand -17.935112 -17.061669 
rfingers 0.000000 
rthumb 8.332970 -46.877264 
lclavicle 0.000000 0.000000 
lhumerus -29.428917 42.071287 76.754236 
lradius 22.829978 
lwrist -65.896904 
lhand -23.081349 2.891157 
lfingers 0.000000 
lthumb 3.364540 32.844363 
rfemur -35.853271 6.362132 8.731932 
rtibia 59.851477 
rfoot -13.467203 -8.952007 
rtoes -26.823005 
lfemur -15.146047 -5.692489 -30.456291 
ltibia 21.379763 
lfoot -8.954013 -7.961966 
ltoes -20.444760 
196
root -9.088052 17.403764 -11.509923 7.559210 -1.700339 4.745972
lowerback -9.849410 -0.502344 -5.715641 
upperback 3.167796 0.208015 -1.333945 
thorax 8.924696 -0.174229 1.830903 
lowerneck -3.272802 -2.776418 1.750146 
upperneck 23.881719 -3.637915 -1.747957 
head 7.813912 -1.719142 -1.146353 
rclavicle 0.000000 0.000000 
rhumerus -34.683405 -16.921249 -80.509061 
rradius 29.536769 
rwrist 31.773457 
rhand -17.947413 -17.157542 
rfingers 0.000000 
rthumb 8.321066 -46.973670 
lclavicle 0.000000 0.000000 
lhumerus -28.226337 40.981895 78.263825 
lradius 23.150456 
lwrist -64.637517 
lhand -22.997584 3.006421 
lfingers 0.000000 
lthumb 3.445449 32.958340 
rfemur -36.087247 7.024303 8.311803 
rtibia 58.924087 
rfoot -13.501878 -8.514732 
rtoes -27.031199 
lfemur -14.829883 -5.761291 -30.550808 
ltibia 21.304638 
lfoot -9.118210 -7.986038 
ltoes -20.384686 
197
root -9.090450 17.404701 -11.458819 7.578934 -1.621972 4.783502
lowerback -9.867442 -0.528102 -5.735425 
upperback 3.189077 0.180778 -1.359385 
thorax 8.960880 -0.188907 1.809851 
lowerneck -3.291718 -2.758477 1.734784 
upperneck 23.901643 -3.640658 -1.615810 
head 7.827477 -1.709772 -1.101153 
rclavicle 0.000000 0.000000 
rhumerus -34.868642 -17.139542 -80.358840 
rradius 29.459792 
rwrist 31.889783 
rhand -17.933838 -17.263628 
rfingers 0.000000 
rthumb 8.334172 -47.079233 
lclavicle 0.000000 0.000000 
lhumerus -27.058004 39.959086 79.555141 
lradius 23.403731 
lwrist -63.707784 
lhand -23.003504 2.956659 
lfingers 0.000000 
lthumb 3.439713 32.908649 
rfemur -36.429848 7.741007 7.892078 
rtibia 57.965510 
rfoot -13.438251 -8.168757 
rtoes -27.060742 
lfemur -14.602438 -5.786924 -30.601213 
ltibia 21.209788 
lfoot -9.220194 -8.054855 
ltoes -20.316828 
198
root -9.092888 17.402954 -11.407455 7.599482 -1.487239 4.777572
lowerback -9.867548 -0.543243 -5.705067 
upperback 3.206743 0.159588 -1.385900 
thorax 8.981753 -0.197371 1.760628 
lowerneck -3.299663 -2.770835 1.844589 
upperneck 23.914672 -3.665496 -1.636703 
head 7.830172 -1.713679 -1.128716 
rclavicle 0.000000 0.000000 
rhumerus -35.047672 -17.797198 -80.082826 
rradius 29.251640 
rwrist 32.442842 
rhand -17.956451 -17.203598 
rfingers 0.000000 
rthumb 8.312403 -47.020080 
lclavicle 0.000000 0.000000 
lhumerus -25.895913 38.588766 80.880112 
lradius 23.725676 
lwrist -62.614531 
lhand -23.061840 3.078560 
lfingers 0.000000 
lthumb 3.383367 33.031462 
rfemur -36.734697 8.345238 7.563004 
rtibia 56.985360 
rfoot -13.112357 -7.693214 
rtoes -27.374841 
lfemur -14.373763 -5.795927 -30.601967 
ltibia 21.114592 
lfoot -9.276585 -8.202696 
ltoes -20.274580 
199
root -9.094800 17.402488 -11.355144 7.560194 -1.377972 4.749182
lowerback -9.802492 -0.586636 -5.659891 
upperback 3.213317 0.088489 -1.357933 
thorax 8.955742 -0.229646 1.752858 
lowerneck -3.210386 -2.724275 1.872045 
upperneck 23.900504 -3.594286 -1.671901 
head 7.809282 -1.680743 -1.137841 
rclavicle 0.000000 0.000000 
rhumerus -35.262443 -18.017266 -79.826564 
rradius 29.149822 
rwrist 32.588486 
rhand -17.851668 -17.038997 
rfingers 0.000000 
rthumb 8.413480 -46.851463 
lclavicle 0.000000 0.000000 
lhumerus -24.908605 37.214206 82.146557 
lradius 24.082969 
lwrist -61.358412 
lhand -22.915255 3.089908 
lfingers 0.000000 
lthumb 3.524971 33.040479 
rfemur -36.944537 9.110030 7.214966 
rtibia 55.985159 
rfoot -12.983822 -7.331140 
rtoes -27.133285 
lfemur -14.074334 -5.784198 -30.587739 
ltibia 21.017886 
lfoot -9.343537 -8.315469 
ltoes -20.617135 
200
root -9.095726 17.403015 -11.302208 7.490786 -1.323723 4.733764
lowerback -9.717527 -0.640678 -5.645511 
upperback 3.240120 0.004791 -1.307183 
thorax 8.941403 -0.271150 1.784469 
lowerneck -3.168260 -2.657246 1.749437 
upperneck 23.898658 -3.493328 -1.642626 
head 7.805960 -1.640885 -1.099377 
rclavicle 0.000000 0.000000 
rhumerus -35.459815 -18.055589 -79.594419 
rradius 29.042148 
rwrist 32.470266 
rhand -17.968984 -16.893788 
rfingers 0.000000 
rthumb 8.300313 -46.710681 
lclavicle 0.000000 0.000000 
lhumerus -23.984246 36.091628 83.329519 
lradius 24.472761 
lwrist -60.154234 
lhand -22.889787 2.975550 
lfingers 0.000000 
lthumb 3.549564 32.925709 
rfemur -37.153252 9.924302 6.839838 
rtibia 54.967704 
rfoot -12.878945 -6.785240 
rtoes -27.263642 
lfemur -13.735200 -5.833459 -30.588708 
ltibia 20.912212 
lfoot -9.466993 -8.325331 
ltoes -20.637191 
201
root -9.099538 17.401754 -11.251600 7.487126 -1.221285 4.746668
lowerback -9.656454 -0.698500 -5.681581 
upperback 3.233005 -0.075406 -1.274674 
thorax 8.904371 -0.312043 1.825836 
lowerneck -3.120431 -2.619770 1.718858 
upperneck 23.916195 -3.429099 -1.679082 
head 7.804080 -1.616138 -1.100949 
rclavicle 0.000000 0.000000 
rhumerus -35.695493 -18.247294 -79.261990 
rradius 28.780446 
rwrist 32.970314 
rhand -18.286244 -16.709261 
rfingers 0.000000 
rthumb 7.994048 -46.538076 
lclavicle 0.000000 0.000000 
lhumerus -23.120293 34.079619 84.654983 
lradius 25.150217 
lwrist -58.170460 
lhand -22.762606 3.206784 
lfingers 0.000000 
lthumb 3.672389 33.154891 
rfemur -37.439098 10.594208 6.458268 
rtibia 53.938647 
rfoot -12.621786 -6.121218 
rtoes -27.797516 
lfemur -13.469883 -5.848993 -30.599082 
ltibia 20.778228 
lfoot -9.513320 -8.429067 
ltoes -20.336567 
202
root -9.100355 17.400653 -11.196814 7.507194 -1.128360 4.822766
lowerback -9.691362 -0.693098 -5.713634 
upperback 3.261049 -0.054692 -1.336690 
thorax 8.954260 -0.303393 1.780687 
lowerneck -3.166855 -2.663077 1.945414 
upperneck 23.946584 -3.488433 -1.801275 
head 7.814473 -1.635163 -1.185044 
rclavicle 0.000000 0.000000 
rhumerus -35.892873 -18.472973 -79.127504 
rradius 28.720206 
rwrist 33.038973 
rhand -18.312199 -16.975701 
rfingers 0.000000 
rthumb 7.968987 -46.805526 
lclavicle 0.000000 0.000000 
lhumerus -22.257290 31.853476 85.869324 
lradius 25.840755 
lwrist -56.302263 
lhand -22.810648 3.504272 
lfingers 0.000000 
lthumb 3.625973 33.453168 
rfemur -37.730333 11.236623 5.995348 
rtibia 52.893998 
rfoot -12.343333 -5.461220 
rtoes -28.131635 
lfemur -13.203587 -5.846082 -30.699940 
ltibia 20.631500 
lfoot -9.511288 -8.544460 
ltoes -20.284997 
203
root -9.103008 17.401506 -11.143552 7.508135 -1.004914 4.821047
lowerback -9.675926 -0.754699 -5.706325 
upperback 3.270701 -0.141483 -1.305368 
thorax 8.962371 -0.346378 1.794909 
lowerneck -3.136893 -2.617182 1.914001 
upperneck 23.951017 -3.413575 -1.833603 
head 7.811885 -1.605171 -1.184480 
rclavicle 0.000000 0.000000 
rhumerus -36.042104 -18.648424 -78.876664 
rradius 28.616364 
rwrist 33.053773 
rhand -18.152635 -17.064296 
rfingers 0.000000 
rthumb 8.122988 -46.888227 
lclavicle 0.000000 0.000000 
lhumerus -21.510068 30.293655 86.897665 
lradius 26.340035 
lwrist -54.727281 
lhand -22.821892 3.394917 
lfingers 0.000000 
lthumb 3.615099 33.343965 
rfemur -37.950559 11.857038 5.641228 
rtibia 51.836889 
rfoot -12.096682 -4.705091 
rtoes -28.607084 
lfemur -12.917976 -5.925354 -30.699019 
ltibia 20.481122 
lfoot -9.591517 -8.589062 
ltoes -20.321889 
